<svg width="26" height="24" viewBox="0 0 26 24" fill="none" xmlns="http://www.w3.org/2000/svg">
<path d="M24.5047 9.54564C23.6639 8.28032 22.5359 7.2649 21.2178 6.58068C21.2203 6.53716 21.2219 6.49333 21.2219 6.44921C21.2219 5.18917 20.1968 4.16405 18.9367 4.16405C17.9616 4.16405 17.1276 4.77825 16.8001 5.63991C13.5825 5.83257 10.7432 7.8076 9.42056 10.7231C8.40875 10.2053 7.28572 9.96753 6.12492 10.0316C4.45447 10.1234 2.90255 10.867 1.75495 12.1256C0.623237 13.3667 0 14.9783 0 16.6633C0 20.5216 3.12979 23.6605 6.97687 23.6605H16.8531C21.8967 23.6605 26 19.5448 26 14.4861C25.9999 12.7261 25.4829 11.0178 24.5047 9.54564ZM18.9367 5.68749C19.3568 5.68749 19.6985 6.0292 19.6985 6.44921C19.6985 6.86922 19.3568 7.21092 18.9367 7.21092C18.5167 7.21092 18.175 6.86922 18.175 6.44921C18.175 6.02914 18.5167 5.68749 18.9367 5.68749ZM16.853 22.137H6.97687C3.96982 22.137 1.52343 19.6815 1.52343 16.6632C1.52343 15.3589 2.00545 14.1119 2.88066 13.152C3.7575 12.1904 4.93928 11.6224 6.2085 11.5527C7.34585 11.4901 8.4346 11.8052 9.3581 12.4637C9.55534 12.6044 9.80777 12.6428 10.0379 12.5673C10.2681 12.4918 10.4485 12.3112 10.5241 12.0811C11.43 9.32083 13.9084 7.39069 16.7687 7.16974C17.0713 8.07766 17.9285 8.73431 18.9367 8.73431C19.6035 8.73431 20.2042 8.44719 20.6224 7.99031C21.6657 8.55474 22.5616 9.37395 23.2359 10.3887C24.0475 11.6102 24.4765 13.0271 24.4765 14.4861C24.4765 18.7048 21.0567 22.137 16.853 22.137Z" fill="#F4A424"/>
<path d="M21.6265 14.1803C21.6232 14.1803 21.62 14.1803 21.6167 14.1803C21.3867 14.1833 21.1481 14.1856 20.918 14.1873C21.1065 13.9284 21.3317 13.6142 21.5984 13.2332C21.8944 12.8103 22.0805 12.4223 22.1675 12.0472C22.1859 11.9499 22.2056 11.8099 22.2081 11.711C22.2081 10.6922 21.3793 9.86338 20.3606 9.86338C19.4797 9.86338 18.7172 10.4902 18.5476 11.3537C18.4665 11.7665 18.7355 12.1669 19.1483 12.2479C19.5609 12.3288 19.9614 12.06 20.0425 11.6473C20.0721 11.4963 20.2059 11.3868 20.3605 11.3868C20.5276 11.3868 20.6656 11.514 20.6828 11.6767L20.6755 11.7343C20.641 11.861 20.556 12.0656 20.3502 12.3596C19.6813 13.3152 19.2825 13.8374 19.0682 14.1179C18.7926 14.4789 18.5934 14.7397 18.7179 15.1444C18.7919 15.3852 18.9805 15.5771 19.223 15.658C19.3248 15.6919 19.3936 15.7149 20.2391 15.7149C20.5697 15.7149 21.0193 15.7114 21.6358 15.7036C22.0565 15.6983 22.3931 15.353 22.3879 14.9324C22.3827 14.515 22.0427 14.1803 21.6265 14.1803Z" fill="#F4A424"/>
<path d="M9.0012 18.243C8.67884 17.9727 8.19845 18.015 7.92809 18.3373C7.87888 18.3959 7.82576 18.4508 7.77026 18.5002C7.48573 18.7536 7.12173 18.8821 6.68832 18.8821C5.51238 18.8821 4.55566 17.9254 4.55566 16.7495C4.55566 15.5736 5.51233 14.6168 6.68832 14.6168C7.11579 14.6168 7.52798 14.7426 7.8802 14.9806C8.22881 15.2162 8.7023 15.1245 8.93777 14.7758C9.17329 14.4272 9.08158 13.9537 8.73302 13.7182C8.12796 13.3095 7.42094 13.0934 6.68832 13.0934C4.67236 13.0934 3.03223 14.7335 3.03223 16.7495C3.03223 18.7654 4.67231 20.4055 6.68832 20.4055C7.49503 20.4055 8.21952 20.1401 8.7835 19.6379C8.894 19.5394 8.99896 19.4312 9.09545 19.3161C9.3658 18.9938 9.32361 18.5133 9.0012 18.243Z" fill="#F4A424"/>
<path d="M13.701 12.7887C11.685 12.7887 10.0449 14.4288 10.0449 16.4448C10.0449 18.4607 11.685 20.1009 13.701 20.1009C15.7169 20.1009 17.3571 18.4607 17.3571 16.4448C17.3571 14.4288 15.7169 12.7887 13.701 12.7887ZM13.701 18.5774C12.525 18.5774 11.5684 17.6207 11.5684 16.4448C11.5684 15.2689 12.525 14.3122 13.701 14.3122C14.8769 14.3122 15.8336 15.2689 15.8336 16.4448C15.8336 17.6207 14.8769 18.5774 13.701 18.5774Z" fill="#F4A424"/>
<path d="M13.3518 4.87499C14.6118 4.87499 15.637 3.84987 15.637 2.58984C15.637 1.32981 14.6118 0.304688 13.3518 0.304688C12.0918 0.304688 11.0667 1.32981 11.0667 2.58984C11.0667 3.84987 12.0918 4.87499 13.3518 4.87499ZM13.3518 1.82812C13.7718 1.82812 14.1135 2.16983 14.1135 2.58984C14.1135 3.00985 13.7718 3.35156 13.3518 3.35156C12.9318 3.35156 12.5901 3.00985 12.5901 2.58984C12.5901 2.16978 12.9318 1.82812 13.3518 1.82812Z" fill="#F4A424"/>
<path d="M22.6956 4.5703C23.9556 4.5703 24.9807 3.54518 24.9807 2.28515C24.9807 1.02512 23.9556 0 22.6956 0C21.4355 0 20.4104 1.02512 20.4104 2.28515C20.4104 3.54518 21.4355 4.5703 22.6956 4.5703ZM22.6956 1.52343C23.1156 1.52343 23.4573 1.86514 23.4573 2.28515C23.4573 2.70516 23.1156 3.04687 22.6956 3.04687C22.2755 3.04687 21.9338 2.70516 21.9338 2.28515C21.9338 1.86509 22.2755 1.52343 22.6956 1.52343Z" fill="#F4A424"/>
<path d="M18.1549 3.04687C18.5245 3.04687 18.8474 2.77047 18.9069 2.40637C18.9598 2.08355 18.7904 1.75094 18.4974 1.60504C18.2368 1.47525 17.9197 1.5047 17.6889 1.68289C17.4364 1.87774 17.3319 2.22183 17.4324 2.52423C17.5346 2.83202 17.8298 3.04687 18.1549 3.04687Z" fill="#F4A424"/>
<path d="M22.8997 5.54479C22.6531 5.74639 22.5596 6.09074 22.666 6.39014C22.7724 6.68965 23.0651 6.89501 23.3827 6.89501C23.7427 6.89501 24.0581 6.63404 24.1297 6.28213C24.1929 5.97125 24.0465 5.64234 23.774 5.48024C23.5003 5.31739 23.1465 5.34303 22.8997 5.54479Z" fill="#F4A424"/>
</svg>
