<svg width="233" height="53" viewBox="0 0 233 53" fill="none" xmlns="http://www.w3.org/2000/svg">
<path d="M52.6621 31.002C52.8262 32.1855 53.1484 33.0703 53.6289 33.6562C54.5078 34.7227 56.0137 35.2559 58.1465 35.2559C59.4238 35.2559 60.4609 35.1152 61.2578 34.834C62.7695 34.2949 63.5254 33.293 63.5254 31.8281C63.5254 30.9727 63.1504 30.3105 62.4004 29.8418C61.6504 29.3848 60.4727 28.9805 58.8672 28.6289L56.125 28.0137C53.4297 27.4043 51.5664 26.7422 50.5352 26.0273C48.7891 24.832 47.916 22.9629 47.916 20.4199C47.916 18.0996 48.7598 16.1719 50.4473 14.6367C52.1348 13.1016 54.6133 12.334 57.8828 12.334C60.6133 12.334 62.9395 13.0605 64.8613 14.5137C66.7949 15.9551 67.8086 18.0527 67.9023 20.8066H62.6992C62.6055 19.248 61.9258 18.1406 60.6602 17.4844C59.8164 17.0508 58.7676 16.834 57.5137 16.834C56.1191 16.834 55.0059 17.1152 54.1738 17.6777C53.3418 18.2402 52.9258 19.0254 52.9258 20.0332C52.9258 20.959 53.3359 21.6504 54.1562 22.1074C54.6836 22.4121 55.8086 22.7695 57.5312 23.1797L61.9961 24.252C63.9531 24.7207 65.4297 25.3477 66.4258 26.1328C67.9727 27.3516 68.7461 29.1152 68.7461 31.4238C68.7461 33.791 67.8379 35.7598 66.0215 37.3301C64.2168 38.8887 61.6621 39.668 58.3574 39.668C54.9824 39.668 52.3281 38.9004 50.3945 37.3652C48.4609 35.8184 47.4941 33.6973 47.4941 31.002H52.6621ZM80.9453 35.4668C82.4102 35.4668 83.5352 34.9453 84.3203 33.9023C85.1055 32.8594 85.498 31.377 85.498 29.4551C85.498 27.5332 85.1055 26.0566 84.3203 25.0254C83.5352 23.9824 82.4102 23.4609 80.9453 23.4609C79.4805 23.4609 78.3496 23.9824 77.5527 25.0254C76.7676 26.0566 76.375 27.5332 76.375 29.4551C76.375 31.377 76.7676 32.8594 77.5527 33.9023C78.3496 34.9453 79.4805 35.4668 80.9453 35.4668ZM90.7539 29.4551C90.7539 32.2676 89.9453 34.6758 88.3281 36.6797C86.7109 38.6719 84.2559 39.668 80.9629 39.668C77.6699 39.668 75.2148 38.6719 73.5977 36.6797C71.9805 34.6758 71.1719 32.2676 71.1719 29.4551C71.1719 26.6895 71.9805 24.293 73.5977 22.2656C75.2148 20.2383 77.6699 19.2246 80.9629 19.2246C84.2559 19.2246 86.7109 20.2383 88.3281 22.2656C89.9453 24.293 90.7539 26.6895 90.7539 29.4551ZM99.4727 39H94.4629V13.0898H99.4727V39ZM114.941 29.6836C114.625 29.8828 114.303 30.0469 113.975 30.1758C113.658 30.293 113.219 30.4043 112.656 30.5098L111.531 30.7207C110.477 30.9082 109.721 31.1367 109.264 31.4062C108.49 31.8633 108.104 32.5723 108.104 33.5332C108.104 34.3887 108.338 35.0098 108.807 35.3965C109.287 35.7715 109.867 35.959 110.547 35.959C111.625 35.959 112.615 35.6426 113.518 35.0098C114.432 34.377 114.906 33.2227 114.941 31.5469V29.6836ZM111.9 27.3457C112.826 27.2285 113.488 27.082 113.887 26.9062C114.602 26.6016 114.959 26.127 114.959 25.4824C114.959 24.6973 114.684 24.1582 114.133 23.8652C113.594 23.5605 112.797 23.4082 111.742 23.4082C110.559 23.4082 109.721 23.7012 109.229 24.2871C108.877 24.7207 108.643 25.3066 108.525 26.0449H103.691C103.797 24.3691 104.266 22.9922 105.098 21.9141C106.422 20.2266 108.695 19.3828 111.918 19.3828C114.016 19.3828 115.879 19.7988 117.508 20.6309C119.137 21.4629 119.951 23.0332 119.951 25.3418V34.1309C119.951 34.7402 119.963 35.4785 119.986 36.3457C120.021 37.002 120.121 37.4473 120.285 37.6816C120.449 37.916 120.695 38.1094 121.023 38.2617V39H115.574C115.422 38.6133 115.316 38.25 115.258 37.9102C115.199 37.5703 115.152 37.1836 115.117 36.75C114.426 37.5 113.629 38.1387 112.727 38.666C111.648 39.2871 110.43 39.5977 109.07 39.5977C107.336 39.5977 105.9 39.1055 104.764 38.1211C103.639 37.125 103.076 35.7188 103.076 33.9023C103.076 31.5469 103.984 29.8418 105.801 28.7871C106.797 28.2129 108.262 27.8027 110.195 27.5566L111.9 27.3457ZM134.822 19.3828C134.916 19.3828 134.992 19.3887 135.051 19.4004C135.121 19.4004 135.268 19.4062 135.49 19.418V24.5508C135.174 24.5156 134.893 24.4922 134.646 24.4805C134.4 24.4688 134.201 24.4629 134.049 24.4629C132.033 24.4629 130.68 25.1191 129.988 26.4316C129.602 27.1699 129.408 28.3066 129.408 29.8418V39H124.363V19.8398H129.145V23.1797C129.918 21.9023 130.592 21.0293 131.166 20.5605C132.104 19.7754 133.322 19.3828 134.822 19.3828ZM153.438 21.334C153.438 19.9863 153.08 19.0254 152.365 18.4512C151.662 17.877 150.672 17.5898 149.395 17.5898H144.35V25.2188H149.395C150.672 25.2188 151.662 24.9082 152.365 24.2871C153.08 23.666 153.438 22.6816 153.438 21.334ZM158.799 21.2988C158.799 24.3574 158.025 26.5195 156.479 27.7852C154.932 29.0508 152.723 29.6836 149.852 29.6836H144.35V39H138.971V13.0898H150.256C152.857 13.0898 154.932 13.7578 156.479 15.0938C158.025 16.4297 158.799 18.498 158.799 21.2988ZM167.447 19.8398V31.3887C167.447 32.4785 167.576 33.2988 167.834 33.8496C168.291 34.8223 169.188 35.3086 170.523 35.3086C172.234 35.3086 173.406 34.6172 174.039 33.2344C174.367 32.4844 174.531 31.4941 174.531 30.2637V19.8398H179.611V39H174.742V36.293C174.695 36.3516 174.578 36.5273 174.391 36.8203C174.203 37.1133 173.98 37.3711 173.723 37.5938C172.938 38.2969 172.176 38.7773 171.438 39.0352C170.711 39.293 169.855 39.4219 168.871 39.4219C166.035 39.4219 164.125 38.4023 163.141 36.3633C162.59 35.2383 162.314 33.5801 162.314 31.3887V19.8398H167.447ZM189.578 39H184.568V13.0898H189.578V39ZM198.385 32.8828C198.49 33.7734 198.719 34.4062 199.07 34.7812C199.691 35.4492 200.84 35.7832 202.516 35.7832C203.5 35.7832 204.279 35.6367 204.854 35.3438C205.439 35.0508 205.732 34.6113 205.732 34.0254C205.732 33.4629 205.498 33.0352 205.029 32.7422C204.561 32.4492 202.82 31.9453 199.809 31.2305C197.641 30.6914 196.111 30.0176 195.221 29.209C194.33 28.4121 193.885 27.2637 193.885 25.7637C193.885 23.9941 194.576 22.4766 195.959 21.2109C197.354 19.9336 199.311 19.2949 201.83 19.2949C204.221 19.2949 206.166 19.7754 207.666 20.7363C209.178 21.6855 210.045 23.332 210.268 25.6758H205.258C205.188 25.0312 205.006 24.5215 204.713 24.1465C204.162 23.4668 203.225 23.127 201.9 23.127C200.811 23.127 200.031 23.2969 199.562 23.6367C199.105 23.9766 198.877 24.375 198.877 24.832C198.877 25.4062 199.123 25.8223 199.615 26.0801C200.107 26.3496 201.848 26.8125 204.836 27.4688C206.828 27.9375 208.322 28.6465 209.318 29.5957C210.303 30.5566 210.795 31.7578 210.795 33.1992C210.795 35.0977 210.086 36.6504 208.668 37.8574C207.262 39.0527 205.082 39.6504 202.129 39.6504C199.117 39.6504 196.891 39.0176 195.449 37.752C194.02 36.4746 193.305 34.8516 193.305 32.8828H198.385ZM222.08 23.4609C220.92 23.4609 220.018 23.8242 219.373 24.5508C218.74 25.2773 218.342 26.2617 218.178 27.5039H225.965C225.883 26.1797 225.479 25.1777 224.752 24.498C224.037 23.8066 223.146 23.4609 222.08 23.4609ZM222.08 19.3301C223.674 19.3301 225.109 19.6289 226.387 20.2266C227.664 20.8242 228.719 21.7676 229.551 23.0566C230.301 24.1934 230.787 25.5117 231.01 27.0117C231.139 27.8906 231.191 29.1562 231.168 30.8086H218.055C218.125 32.7305 218.729 34.0781 219.865 34.8516C220.557 35.332 221.389 35.5723 222.361 35.5723C223.393 35.5723 224.23 35.2793 224.875 34.6934C225.227 34.377 225.537 33.9375 225.807 33.375H230.922C230.793 34.5117 230.201 35.666 229.146 36.8379C227.506 38.7012 225.209 39.6328 222.256 39.6328C219.818 39.6328 217.668 38.8477 215.805 37.2773C213.941 35.707 213.01 33.1523 213.01 29.6133C213.01 26.2969 213.848 23.7539 215.523 21.9844C217.211 20.2148 219.396 19.3301 222.08 19.3301Z" fill="black"/>
<path d="M28.8594 17.2987C36.943 25.2681 37.036 38.2813 29.0666 46.3653C21.0972 54.4489 8.08357 54.5419 0 46.5725L28.8594 17.2987Z" fill="#F4A424"/>
<path d="M7.14059 35.1906C-0.942982 27.2212 -1.036 14.208 6.93339 6.12399C14.9028 -1.95959 27.916 -2.0526 36 5.91679L7.14059 35.1906Z" fill="#F4A424"/>
</svg>
