<svg width="23" height="22" viewBox="0 0 23 22" fill="none" xmlns="http://www.w3.org/2000/svg">
<path d="M21.8799 10.2159L17.4854 14.0079L18.8242 19.6788C18.8981 19.9867 18.8791 20.3095 18.7696 20.6065C18.66 20.9036 18.4649 21.1615 18.2089 21.3477C17.9529 21.5339 17.6474 21.6401 17.3311 21.6528C17.0148 21.6655 16.7018 21.5842 16.4316 21.4191L11.5 18.3839L6.56543 21.4191C6.29534 21.5832 5.98272 21.6638 5.66693 21.6506C5.35115 21.6374 5.04631 21.5311 4.79082 21.3451C4.53533 21.159 4.3406 20.9015 4.23116 20.605C4.12171 20.3085 4.10245 19.9863 4.17578 19.6788L5.51953 14.0079L1.125 10.2159C0.886033 10.0094 0.713208 9.73704 0.628108 9.43287C0.543008 9.1287 0.549405 8.8062 0.646499 8.50564C0.743594 8.20509 0.927083 7.9398 1.17405 7.7429C1.42102 7.54601 1.72052 7.42624 2.03516 7.39855L7.79688 6.9337L10.0195 1.5548C10.1398 1.26165 10.3446 1.0109 10.6078 0.834423C10.871 0.657948 11.1807 0.563721 11.4976 0.563721C11.8144 0.563721 12.1242 0.657948 12.3873 0.834423C12.6505 1.0109 12.8553 1.26165 12.9756 1.5548L15.1973 6.9337L20.959 7.39855C21.2742 7.42521 21.5746 7.54431 21.8225 7.74093C22.0704 7.93756 22.2547 8.20295 22.3524 8.50387C22.4501 8.80479 22.4568 9.12785 22.3717 9.43258C22.2866 9.7373 22.1135 10.0101 21.874 10.2169L21.8799 10.2159Z" fill="#BCBCBC"/>
</svg>
